<?xml version="1.0" encoding="UTF-8"?>
<svg xmlns="http://www.w3.org/2000/svg" xmlns:xlink="http://www.w3.org/1999/xlink" width="200px" height="200px" viewBox="0 0 200 200" version="1.1">
<g id="surface1">
<path style=" stroke:none;fill-rule:nonzero;fill:rgb(0%,0%,0%);fill-opacity:1;" d="M 92.304688 25.625 C 92.773438 25.625 93.359375 25.859375 93.867188 26.5625 C 91.601562 23.320312 96.40625 24.726562 96.679688 21.640625 C 99.414062 19.609375 98.4375 18.28125 99.21875 18.203125 L 100.078125 17.5 C 98.398438 18.125 97.8125 18.242188 97.34375 18.242188 C 97.226562 18.242188 97.109375 18.242188 96.992188 18.242188 C 96.875 18.242188 96.71875 18.242188 96.5625 18.242188 C 95.976562 18.242188 95 18.359375 92.695312 19.0625 C 87.421875 19.453125 83.632812 25.15625 81.835938 25.3125 C 80 26.289062 80.078125 26.484375 80.507812 26.484375 C 80.625 26.484375 80.78125 26.445312 80.9375 26.445312 C 81.09375 26.445312 81.210938 26.40625 81.328125 26.40625 C 81.757812 26.40625 81.640625 26.601562 79.140625 27.773438 C 79.726562 27.929688 74.765625 30.117188 74.726562 33.554688 C 74.570312 34.882812 75.117188 35.78125 76.015625 35.78125 C 76.796875 35.78125 77.773438 35.195312 78.828125 33.710938 C 82.34375 29.648438 89.765625 29.257812 92.96875 26.796875 C 90.976562 26.640625 91.367188 25.625 92.304688 25.625 Z M 74.453125 26.992188 C 74.101562 26.992188 74.570312 26.5625 75.078125 26.132812 C 75.625 25.703125 76.25 25.273438 76.25 25.273438 C 76.25 25.273438 76.25 25.273438 76.210938 25.3125 C 78.320312 24.492188 77.03125 24.296875 78.164062 23.75 C 78.125 23.75 78.125 23.75 78.085938 23.75 C 77.851562 23.75 78.28125 23.4375 78.671875 23.085938 C 79.0625 22.773438 79.414062 22.421875 79.0625 22.421875 C 78.867188 22.421875 78.359375 22.539062 77.5 22.890625 C 77.773438 22.5 78.828125 22.226562 80.3125 21.40625 C 78.164062 22.109375 76.484375 22.539062 76.289062 22.539062 C 76.132812 22.539062 77.03125 22.226562 79.726562 21.40625 C 79.84375 21.40625 79.960938 21.445312 80.039062 21.445312 C 80.3125 21.445312 80.429688 21.367188 80.390625 21.289062 C 80.351562 21.210938 80.195312 21.171875 79.921875 21.171875 C 76.054688 21.484375 73.164062 23.90625 74.023438 24.21875 C 74.53125 24.0625 74.882812 23.984375 75.117188 23.984375 C 75.625 23.984375 75.390625 24.414062 74.375 25.039062 C 74.84375 26.132812 66.5625 28.945312 65.625 29.960938 C 66.09375 29.6875 66.40625 29.609375 66.5625 29.609375 C 67.1875 29.609375 66.367188 30.820312 65.546875 31.40625 C 66.054688 31.875 66.445312 32.03125 66.757812 32.03125 C 67.578125 32.03125 67.929688 30.898438 68.632812 30.546875 C 68.789062 30.859375 68.945312 31.015625 69.140625 31.015625 C 69.804688 31.015625 70.625 29.375 71.289062 28.515625 C 71.484375 28.710938 71.71875 28.867188 72.03125 28.867188 C 72.65625 28.867188 73.59375 28.359375 75.078125 26.914062 C 74.765625 26.953125 74.53125 26.992188 74.453125 26.992188 Z M 65.46875 34.179688 C 64.0625 35.039062 63.320312 35.390625 63.007812 35.390625 C 62.421875 35.390625 63.203125 34.296875 63.90625 33.164062 C 64.609375 32.070312 65.234375 30.976562 64.335938 30.976562 C 63.90625 30.976562 63.125 31.210938 61.875 31.835938 C 58.476562 34.101562 52.734375 40.351562 50.195312 40.351562 C 50.117188 40.351562 50.039062 40.351562 49.960938 40.351562 C 54.0625 37.34375 52.851562 31.445312 58.59375 29.921875 C 64.257812 26.679688 68.125 27.695312 73.164062 23.984375 C 71.679688 24.726562 69.492188 25.546875 68.984375 25.546875 C 68.671875 25.546875 69.140625 25.15625 71.171875 24.179688 C 70.976562 24.21875 70.820312 24.257812 70.703125 24.257812 C 69.335938 24.257812 79.6875 20.546875 80.195312 20.46875 C 75.9375 21.054688 69.0625 24.609375 68.125 24.609375 C 68.007812 24.609375 68.007812 24.570312 68.007812 24.492188 C 68.164062 24.375 68.164062 24.296875 68.007812 24.296875 C 67.5 24.296875 65.390625 25 63.242188 25.703125 C 61.132812 26.40625 58.984375 27.148438 58.515625 27.148438 C 58.359375 27.148438 58.359375 27.070312 58.59375 26.914062 C 40.15625 37.382812 24.765625 55.039062 19.960938 75.976562 C 21.953125 80.546875 20.585938 89.257812 23.867188 91.796875 C 27.617188 94.960938 20.664062 104.140625 22.5 109.804688 C 24.375 120.039062 32.460938 127.03125 33.320312 137.5 C 34.804688 144.6875 40.234375 153.476562 42.5 158.046875 C 44.21875 159.765625 48.945312 164.726562 49.765625 164.726562 C 50.078125 164.726562 49.882812 163.984375 48.632812 161.992188 C 47.851562 159.765625 43.320312 153.945312 45.507812 153.945312 C 45.625 153.945312 45.742188 153.945312 45.898438 153.984375 C 43.203125 151.25 51.875 151.992188 45.820312 148.28125 C 45.117188 147.421875 44.960938 147.148438 45.117188 147.148438 C 45.3125 147.148438 45.859375 147.460938 46.484375 147.773438 C 47.148438 148.085938 47.929688 148.398438 48.554688 148.398438 C 49.53125 148.398438 50.195312 147.734375 49.804688 145.3125 C 49.960938 145.390625 50.117188 145.390625 50.234375 145.390625 C 51.25 145.390625 50.898438 143.398438 50.976562 141.40625 C 51.054688 139.414062 51.5625 137.421875 54.296875 137.421875 C 54.609375 137.421875 54.960938 137.460938 55.3125 137.5 C 61.640625 134.0625 56.132812 124.570312 63.398438 121.09375 C 63.125 113.203125 52.539062 112.8125 48.554688 109.609375 C 47.890625 110 47.265625 110.117188 46.640625 110.117188 C 45.9375 110.117188 45.3125 109.960938 44.765625 109.765625 C 44.21875 109.609375 43.710938 109.414062 43.359375 109.414062 C 43.28125 109.414062 43.203125 109.414062 43.125 109.453125 C 49.921875 107.65625 44.960938 98.203125 39.335938 98.203125 C 39.21875 98.203125 39.0625 98.203125 38.945312 98.203125 C 38.515625 94.101562 36.40625 95.664062 36.171875 92.265625 C 35.820312 92.460938 35.46875 92.539062 35.117188 92.539062 C 34.179688 92.539062 33.320312 91.875 32.578125 91.25 C 31.835938 90.585938 31.210938 89.960938 30.664062 89.960938 C 30.234375 89.960938 29.84375 90.390625 29.492188 91.640625 C 29.882812 89.726562 29.765625 89.101562 29.375 89.101562 C 28.984375 89.101562 28.28125 89.765625 27.5 90.429688 C 26.757812 91.09375 25.898438 91.757812 25.234375 91.757812 C 25.15625 91.757812 25.117188 91.757812 25.039062 91.757812 C 20.46875 88.515625 25.078125 82.773438 22.65625 78.359375 C 24.21875 76.679688 24.84375 73.828125 24.140625 73.828125 C 23.789062 73.828125 23.085938 74.53125 21.992188 76.445312 C 20.429688 72.460938 24.570312 63.4375 28.085938 62.929688 C 28.203125 62.929688 28.28125 62.890625 28.398438 62.890625 C 29.023438 62.890625 29.648438 63.203125 30.195312 63.867188 C 30.507812 65.703125 29.726562 69.570312 30.039062 69.570312 C 30.195312 69.570312 30.507812 68.789062 31.289062 66.757812 C 32.304688 62.109375 39.414062 58.75 40.15625 55.898438 C 40.195312 55.9375 40.195312 55.9375 40.234375 55.9375 C 41.054688 55.9375 46.328125 51.289062 48.632812 50.78125 C 49.53125 49.882812 50.15625 49.570312 50.625 49.570312 C 51.132812 49.570312 51.40625 49.960938 51.601562 50.3125 C 51.796875 50.703125 51.953125 51.054688 52.148438 51.054688 C 52.304688 51.054688 52.5 50.820312 52.851562 50.15625 C 51.640625 47.773438 54.765625 45.507812 53.90625 45.507812 C 53.59375 45.507812 52.65625 45.820312 50.742188 46.601562 C 50.429688 46.757812 50.273438 46.796875 50.195312 46.796875 C 49.960938 46.796875 50.898438 46.171875 52.265625 45.546875 C 53.632812 44.921875 55.351562 44.296875 56.796875 44.296875 C 57.5 44.296875 58.125 44.453125 58.59375 44.84375 C 64.648438 43.398438 61.328125 41.40625 61.640625 41.40625 C 61.640625 41.40625 61.679688 41.40625 61.71875 41.40625 C 63.4375 40.390625 62.929688 36.5625 65.46875 34.179688 Z M 38.398438 50.15625 C 38.320312 50.15625 38.671875 49.648438 39.84375 48.203125 C 42.265625 46.40625 44.21875 45.195312 41.992188 44.023438 C 42.96875 43.59375 43.90625 43.085938 44.804688 42.539062 C 44.765625 44.453125 43.164062 49.101562 42.304688 49.101562 C 42.109375 49.101562 41.914062 48.828125 41.835938 48.242188 C 42.34375 47.34375 42.382812 46.992188 42.1875 46.992188 C 41.875 46.992188 40.976562 47.773438 40.117188 48.59375 C 39.257812 49.335938 38.476562 50.15625 38.398438 50.15625 Z M 40.625 51.210938 C 39.570312 51.210938 39.765625 50.546875 43.007812 49.882812 C 44.414062 49.6875 43.320312 49.765625 45 49.375 C 43.359375 50.703125 41.523438 51.210938 40.625 51.210938 Z M 101.367188 47.265625 C 101.835938 47.1875 102.1875 47.1875 102.460938 47.1875 C 103.59375 47.1875 103.085938 47.65625 102.421875 48.125 C 101.757812 48.59375 100.9375 49.0625 101.40625 49.0625 C 101.679688 49.0625 102.421875 48.90625 103.945312 48.476562 C 111.640625 47.929688 100.9375 41.40625 102.65625 39.21875 L 102.1875 39.0625 C 99.023438 43.085938 104.296875 43.164062 101.367188 47.265625 Z M 98.164062 47.421875 C 98.710938 47.421875 99.414062 46.796875 100.15625 45.039062 C 101.171875 43.828125 100.742188 43.671875 99.648438 43.085938 C 96.640625 43.867188 96.914062 47.421875 98.164062 47.421875 Z M 125.117188 59.804688 C 125 59.804688 124.921875 59.84375 124.84375 59.882812 C 125.15625 59.960938 125.46875 60.039062 125.78125 60.039062 C 125.46875 59.882812 125.273438 59.804688 125.117188 59.804688 Z M 177.578125 69.53125 C 178.242188 70.976562 178.59375 71.5625 178.632812 71.5625 C 178.90625 71.5625 173.710938 58.90625 171.5625 56.640625 C 160.351562 38.203125 141.914062 24.101562 120.898438 18.828125 L 120.859375 18.828125 C 120.3125 18.828125 120.9375 19.101562 121.679688 19.375 C 122.421875 19.648438 123.320312 19.921875 123.320312 19.921875 C 123.320312 19.921875 122.734375 19.726562 120.9375 19.21875 C 118.945312 18.632812 116.914062 18.203125 114.84375 18.046875 C 114.492188 18.164062 123.398438 21.679688 129.375 23.515625 C 127.382812 22.890625 125.3125 22.34375 124.804688 22.34375 C 124.453125 22.34375 124.804688 22.578125 126.25 23.203125 C 124.492188 22.695312 123.75 22.460938 123.671875 22.460938 C 123.554688 22.460938 126.015625 23.28125 128.320312 24.101562 C 130.664062 24.921875 132.890625 25.742188 132.265625 25.742188 C 132.109375 25.742188 131.679688 25.664062 131.015625 25.546875 C 133.007812 26.640625 133.710938 27.070312 133.59375 27.070312 C 133.398438 27.070312 130.9375 25.898438 128.398438 24.726562 C 125.898438 23.554688 123.359375 22.382812 123.007812 22.382812 C 122.8125 22.382812 123.320312 22.773438 125.039062 23.789062 C 127.382812 24.804688 129.726562 25.820312 129.0625 25.820312 C 128.75 25.820312 127.851562 25.625 126.09375 25.117188 C 130 27.109375 123.320312 26.328125 125.585938 29.023438 C 124.335938 27.851562 123.828125 27.460938 123.710938 27.460938 C 123.59375 27.460938 123.90625 27.929688 124.21875 28.398438 C 124.53125 28.867188 124.765625 29.335938 124.492188 29.335938 C 124.453125 29.335938 124.453125 29.335938 124.414062 29.335938 C 127.148438 32.304688 122.5 29.648438 125.820312 32.304688 C 123.320312 31.171875 119.0625 29.296875 120.976562 29.296875 C 121.445312 29.296875 122.34375 29.414062 123.75 29.726562 C 121.210938 26.757812 114.023438 26.640625 113.867188 26.289062 C 112.070312 26.40625 112.03125 27.773438 112.34375 30.273438 C 112.304688 34.21875 108.4375 34.296875 108.945312 36.5625 C 108.945312 36.523438 108.984375 36.523438 108.984375 36.523438 C 109.0625 36.523438 109.101562 37.304688 109.335938 38.125 C 109.609375 38.90625 110.078125 39.726562 111.09375 39.726562 C 111.640625 39.726562 112.34375 39.492188 113.203125 38.90625 C 114.414062 41.09375 115.507812 41.875 116.367188 41.875 C 117.65625 41.875 118.4375 40.117188 118.359375 38.515625 C 116.953125 37.734375 115.117188 31.25 117.148438 31.25 C 117.460938 31.25 117.851562 31.40625 118.359375 31.757812 C 115.195312 39.53125 130.859375 34.335938 121.992188 37.890625 C 123.984375 40.507812 120.742188 40.390625 121.679688 43.554688 C 120.15625 43.984375 118.476562 44.375 116.992188 44.375 C 114.804688 44.375 113.125 43.4375 113.320312 40.15625 C 110.585938 41.601562 116.054688 46.484375 110.625 46.484375 L 110.3125 46.484375 C 107.695312 51.289062 97.890625 49.648438 105.585938 54.726562 C 106.015625 56.953125 104.609375 57.34375 102.8125 57.34375 C 102.34375 57.34375 101.835938 57.304688 101.328125 57.265625 C 100.820312 57.226562 100.3125 57.226562 99.84375 57.226562 C 97.8125 57.226562 96.367188 57.734375 97.617188 60.898438 C 96.71875 64.179688 98.828125 65.625 101.40625 65.625 C 104.53125 65.625 108.359375 63.59375 108.632812 60.234375 C 110.3125 57.695312 112.460938 56.640625 114.6875 56.640625 C 118.203125 56.640625 121.914062 59.296875 124.335938 62.578125 C 124.53125 62.890625 124.6875 63.007812 124.765625 63.007812 C 124.960938 63.007812 124.765625 62.226562 124.6875 61.445312 C 124.609375 60.820312 124.609375 60.195312 124.84375 60 C 121.367188 59.023438 118.710938 54.804688 119.882812 54.804688 C 120.273438 54.804688 121.09375 55.273438 122.421875 56.523438 C 122.5 56.523438 122.578125 56.523438 122.617188 56.523438 C 124.804688 56.523438 126.523438 58.242188 127.851562 59.960938 C 129.21875 61.679688 130.234375 63.398438 131.132812 63.398438 C 131.484375 63.398438 131.835938 63.085938 132.148438 62.382812 C 131.992188 62.148438 131.601562 61.484375 131.40625 60.820312 C 131.171875 60 131.171875 59.179688 132.226562 59.179688 C 132.65625 59.179688 133.242188 59.335938 134.0625 59.648438 C 136.71875 58.945312 132.382812 52.03125 135.898438 52.03125 C 136.25 52.03125 136.679688 52.109375 137.226562 52.265625 C 137.1875 53.476562 137.734375 53.90625 138.242188 53.90625 C 139.257812 53.90625 140.273438 52.460938 137.8125 52.03125 C 138.75 51.132812 139.296875 50.78125 139.6875 50.78125 C 141.054688 50.78125 139.960938 55.3125 144.6875 55.3125 C 146.289062 59.101562 130.78125 55.585938 135.742188 62.851562 C 136.875 63.671875 138.28125 63.828125 139.648438 63.828125 C 140.078125 63.828125 140.46875 63.828125 140.859375 63.789062 C 141.25 63.789062 141.640625 63.75 141.992188 63.75 C 144.414062 63.75 146.132812 64.335938 145.078125 69.335938 C 143.789062 70.273438 142.34375 70.585938 140.859375 70.585938 C 139.53125 70.585938 138.203125 70.351562 136.914062 70.117188 C 135.625 69.882812 134.375 69.648438 133.242188 69.648438 C 131.484375 69.648438 130.078125 70.234375 129.21875 72.265625 C 124.648438 70.390625 118.632812 70.3125 119.21875 64.648438 C 111.25 65.78125 102.929688 65.195312 97.070312 70.078125 C 96.71875 77.226562 84.453125 79.53125 87.421875 87.65625 C 83.867188 95.15625 91.71875 105.664062 99.726562 105.664062 C 100 105.664062 100.3125 105.664062 100.585938 105.625 C 104.960938 105.585938 109.375 103.632812 113.242188 103.632812 C 115.234375 103.632812 117.03125 104.140625 118.59375 105.703125 C 118.945312 105.664062 119.257812 105.625 119.53125 105.625 C 125.507812 105.625 117.617188 115.117188 124.765625 116.71875 C 131.25 123.4375 120.78125 130.351562 125.898438 136.796875 C 126.445312 141.835938 128.945312 146.054688 128.945312 150.976562 C 129.609375 151.054688 130.234375 151.09375 130.898438 151.09375 C 139.140625 151.09375 144.296875 143.90625 149.140625 138.476562 C 147.65625 130.351562 160.664062 128.75 156.210938 119.648438 C 154.140625 109.6875 166.015625 103.789062 165.351562 93.828125 C 165.46875 92.421875 165.078125 91.992188 164.492188 91.992188 C 163.90625 91.992188 163.046875 92.421875 162.226562 92.8125 C 161.367188 93.242188 160.429688 93.632812 159.6875 93.632812 C 158.710938 93.632812 157.96875 92.96875 157.890625 90.78125 C 152.148438 85.429688 149.53125 78.164062 144.179688 72.265625 C 151.132812 75.625 155.078125 83.203125 158.28125 90.078125 C 158.554688 90.15625 158.828125 90.195312 159.140625 90.195312 C 164.804688 90.195312 172.695312 76.640625 164.101562 73.359375 C 163.632812 74.648438 163.007812 75.117188 162.265625 75.117188 C 160.976562 75.117188 159.492188 73.554688 158.4375 72.03125 C 157.382812 70.46875 156.835938 68.90625 157.421875 68.90625 C 157.8125 68.90625 158.671875 69.53125 160.15625 71.171875 C 161.835938 72.226562 163.476562 72.5 165.195312 72.5 C 166.875 72.5 168.59375 72.226562 170.390625 72.070312 C 172.65625 72.96875 173.632812 75.859375 174.335938 75.859375 C 174.453125 75.859375 174.609375 75.742188 174.726562 75.46875 C 176.523438 79.765625 178.59375 87.421875 180.46875 89.492188 C 179.492188 82.929688 179.257812 75.976562 177.578125 69.53125 Z M 155.78125 60.507812 C 151.367188 59.375 149.921875 53.90625 146.445312 50.742188 C 146.40625 49.882812 147.695312 50.039062 147.382812 48.59375 C 152.070312 50.039062 150.546875 51.484375 150.117188 51.757812 C 151.835938 54.609375 156.640625 56.5625 155.78125 60.507812 Z M 95.117188 30.78125 C 90.859375 32.03125 90.273438 30.664062 91.015625 33.28125 C 91.328125 33.515625 91.914062 33.59375 92.5 33.59375 C 94.570312 33.632812 97.382812 32.421875 95.117188 30.78125 Z M 157.65625 138.398438 C 163.242188 133.671875 163.945312 128.046875 164.21875 122.34375 C 161.71875 127.226562 154.296875 132.617188 157.65625 138.398438 Z M 132.226562 62.226562 C 132.1875 62.265625 132.1875 62.265625 132.1875 62.304688 C 132.226562 62.382812 132.265625 62.382812 132.265625 62.382812 C 132.265625 62.382812 132.265625 62.34375 132.226562 62.226562 Z M 100 0 C 44.765625 0 0 44.765625 0 100 C 0 155.234375 44.765625 200 100 200 C 155.234375 200 200 155.234375 200 100 C 200 44.765625 155.234375 0 100 0 Z M 100 192.304688 C 49.023438 192.304688 7.695312 150.976562 7.695312 100 C 7.695312 49.023438 49.023438 7.695312 100 7.695312 C 150.976562 7.695312 192.304688 49.023438 192.304688 100 C 192.304688 150.976562 150.976562 192.304688 100 192.304688 Z M 100 192.304688 "/>
</g>
</svg>
