<?xml version="1.0" encoding="UTF-8"?>
<svg xmlns="http://www.w3.org/2000/svg" xmlns:xlink="http://www.w3.org/1999/xlink" width="200px" height="200px" viewBox="0 0 200 200" version="1.1">
<g id="surface1">
<path style=" stroke:none;fill-rule:nonzero;fill:rgb(0%,0%,0%);fill-opacity:1;" d="M 72.917969 90 L 83.332031 120.832031 L 116.667969 120.832031 L 127.082031 90 L 100 70.832031 Z M 72.917969 90 "/>
<path style=" stroke:none;fill-rule:nonzero;fill:rgb(0%,0%,0%);fill-opacity:1;" d="M 189.582031 79.582031 C 179.902344 37.90625 142.789062 8.386719 100 8.332031 C 93.121094 8.367188 86.269531 9.207031 79.582031 10.832031 C 34.515625 21.570312 4.542969 64.25 9.742188 110.289062 C 14.941406 156.324219 53.671875 191.246094 100 191.667969 C 106.851562 191.570312 113.683594 190.875 120.417969 189.582031 C 169.820312 178.210938 200.738281 129.039062 189.582031 79.582031 Z M 160.417969 144.582031 L 155.832031 130.832031 L 122.917969 130.832031 L 112.082031 162.5 L 123.75 170.832031 L 116.667969 172.917969 C 111.191406 174.089844 105.601562 174.648438 100 174.582031 C 91.933594 174.625 83.910156 173.359375 76.25 170.832031 L 87.917969 162.5 L 77.082031 130.832031 L 44.167969 130.832031 L 39.582031 144.582031 C 33.433594 136.300781 29.167969 126.773438 27.082031 116.667969 C 25.59375 111.097656 24.890625 105.347656 25 99.582031 L 36.667969 107.917969 L 62.917969 87.917969 L 53.332031 56.25 L 39.167969 56.25 C 48.714844 43.261719 62.136719 33.632812 77.5 28.75 L 72.917969 42.082031 L 100 61.25 L 127.082031 42.082031 L 122.5 28.332031 C 138.035156 33.328125 151.59375 43.097656 161.25 56.25 L 146.667969 56.25 L 137.082031 87.917969 L 163.332031 107.917969 L 175 99.167969 C 174.949219 115.449219 169.855469 131.316406 160.417969 144.582031 Z M 160.417969 144.582031 "/>
</g>
</svg>
